<svg xmlns="http://www.w3.org/2000/svg" xmlns:xlink="http://www.w3.org/1999/xlink" width="1080" zoomAndPan="magnify" viewBox="0 0 810 809.999993" height="1080" preserveAspectRatio="xMidYMid meet" version="1.0"><defs><g/><clipPath id="d09f4e7463"><path d="M 539.078125 313.558594 L 682.328125 313.558594 L 682.328125 486 L 539.078125 486 Z M 539.078125 313.558594 " clip-rule="nonzero"/></clipPath></defs><g clip-path="url(#d09f4e7463)"><path fill="#e6b51c" d="M 606.929688 313.589844 L 614.308594 313.589844 C 614.539062 313.714844 614.78125 313.804688 615.039062 313.863281 C 619.210938 314.160156 623.273438 315 627.226562 316.375 C 631.175781 317.753906 634.878906 319.628906 638.328125 321.992188 C 640.058594 323.117188 641.714844 324.347656 643.289062 325.679688 C 644.863281 327.011719 646.351562 328.441406 647.746094 329.960938 C 649.140625 331.480469 650.4375 333.085938 651.628906 334.769531 C 652.824219 336.453125 653.90625 338.207031 654.878906 340.027344 C 655.851562 341.847656 656.707031 343.722656 657.441406 345.648438 C 658.179688 347.578125 658.789062 349.546875 659.277344 351.550781 C 659.765625 353.554688 660.128906 355.585938 660.359375 357.636719 C 660.59375 359.6875 660.695312 361.742188 660.667969 363.808594 C 660.707031 364.273438 660.695312 364.734375 660.632812 365.199219 C 660.570312 365.660156 660.460938 366.109375 660.304688 366.550781 C 660.144531 366.988281 659.945312 367.40625 659.699219 367.800781 C 659.453125 368.199219 659.167969 368.5625 658.84375 368.898438 C 658.519531 369.234375 658.164062 369.53125 657.773438 369.789062 C 657.386719 370.050781 656.976562 370.265625 656.542969 370.4375 C 656.109375 370.609375 655.664062 370.734375 655.203125 370.808594 C 654.742188 370.886719 654.28125 370.914062 653.816406 370.890625 C 651.261719 370.988281 648.671875 370.976562 646.101562 370.890625 C 645.453125 370.917969 644.816406 370.847656 644.1875 370.679688 C 643.5625 370.507812 642.972656 370.246094 642.425781 369.898438 C 641.878906 369.546875 641.398438 369.121094 640.984375 368.621094 C 640.570312 368.121094 640.238281 367.570312 639.992188 366.96875 C 639.5 365.597656 639.246094 364.179688 639.238281 362.71875 C 639.214844 362.15625 639.171875 361.59375 639.117188 361.035156 C 639.0625 360.472656 638.988281 359.914062 638.898438 359.359375 C 638.8125 358.800781 638.707031 358.246094 638.585938 357.699219 C 638.460938 357.148438 638.324219 356.601562 638.171875 356.058594 C 638.019531 355.515625 637.847656 354.980469 637.664062 354.445312 C 637.480469 353.914062 637.277344 353.386719 637.0625 352.867188 C 636.847656 352.347656 636.617188 351.832031 636.371094 351.328125 C 636.125 350.820312 635.863281 350.320312 635.585938 349.828125 C 635.3125 349.335938 635.023438 348.851562 634.71875 348.378906 C 634.414062 347.902344 634.097656 347.4375 633.765625 346.984375 C 633.433594 346.527344 633.089844 346.082031 632.734375 345.644531 C 632.375 345.210938 632.007812 344.785156 631.625 344.371094 C 631.242188 343.957031 630.847656 343.554688 630.441406 343.160156 C 630.035156 342.769531 629.621094 342.390625 629.191406 342.027344 C 628.761719 341.660156 628.324219 341.304688 627.875 340.964844 C 627.425781 340.625 626.96875 340.296875 626.5 339.984375 C 626.03125 339.667969 625.554688 339.367188 625.070312 339.082031 C 624.585938 338.796875 624.089844 338.523438 623.589844 338.269531 C 623.089844 338.011719 622.578125 337.769531 622.0625 337.542969 C 621.546875 337.316406 621.027344 337.101562 620.5 336.90625 C 619.96875 336.710938 619.4375 336.53125 618.898438 336.363281 C 618.359375 336.199219 617.816406 336.050781 617.269531 335.917969 C 616.71875 335.785156 616.167969 335.667969 615.613281 335.566406 C 615.0625 335.464844 614.503906 335.378906 613.945312 335.3125 C 613.386719 335.242188 612.824219 335.191406 612.261719 335.15625 C 611.699219 335.121094 611.136719 335.101562 610.574219 335.101562 C 610.007812 335.097656 609.445312 335.113281 608.882812 335.140625 C 608.320312 335.171875 607.757812 335.21875 607.199219 335.285156 C 606.640625 335.347656 606.082031 335.429688 605.527344 335.523438 C 604.972656 335.621094 604.417969 335.734375 603.871094 335.863281 C 603.320312 335.992188 602.777344 336.136719 602.238281 336.296875 C 601.699219 336.457031 601.164062 336.632812 600.632812 336.824219 C 599.320312 337.367188 598.054688 338.003906 596.832031 338.726562 C 595.613281 339.449219 594.449219 340.253906 593.339844 341.140625 C 592.234375 342.03125 591.195312 342.992188 590.222656 344.027344 C 589.253906 345.0625 588.359375 346.160156 587.546875 347.324219 C 586.730469 348.484375 586.003906 349.699219 585.359375 350.964844 C 584.714844 352.230469 584.167969 353.535156 583.707031 354.878906 C 583.25 356.222656 582.890625 357.589844 582.625 358.984375 C 582.363281 360.378906 582.199219 361.785156 582.136719 363.203125 C 581.964844 370.1875 582.070312 377.183594 582.058594 384.171875 C 582.089844 384.53125 582.152344 384.882812 582.242188 385.230469 L 584.632812 385.230469 C 611.96875 385.230469 639.300781 385.230469 666.636719 385.230469 C 668.03125 385.195312 669.414062 385.300781 670.789062 385.550781 C 671.597656 385.71875 672.386719 385.957031 673.152344 386.261719 C 673.921875 386.566406 674.65625 386.933594 675.359375 387.367188 C 676.066406 387.800781 676.726562 388.292969 677.34375 388.839844 C 677.960938 389.386719 678.527344 389.984375 679.042969 390.632812 C 679.558594 391.277344 680.015625 391.964844 680.410156 392.691406 C 680.804688 393.414062 681.136719 394.167969 681.398438 394.953125 C 681.664062 395.734375 681.859375 396.535156 681.984375 397.351562 C 682.109375 398.167969 682.164062 398.988281 682.148438 399.816406 C 682.171875 416.367188 682.171875 432.921875 682.148438 449.476562 C 682.167969 450.816406 682.117188 452.160156 681.996094 453.496094 C 681.886719 454.585938 681.730469 455.664062 681.527344 456.738281 C 681.320312 457.8125 681.0625 458.875 680.757812 459.925781 C 680.453125 460.976562 680.097656 462.011719 679.699219 463.027344 C 679.296875 464.046875 678.847656 465.042969 678.355469 466.019531 C 677.859375 466.996094 677.324219 467.945312 676.742188 468.871094 C 676.160156 469.796875 675.535156 470.695312 674.871094 471.5625 C 674.203125 472.429688 673.5 473.265625 672.757812 474.070312 C 672.015625 474.871094 671.234375 475.636719 670.421875 476.367188 C 669.605469 477.097656 668.761719 477.789062 667.882812 478.441406 C 667.003906 479.09375 666.097656 479.703125 665.164062 480.273438 C 664.226562 480.839844 663.269531 481.363281 662.285156 481.839844 C 661.300781 482.320312 660.296875 482.753906 659.273438 483.136719 C 658.25 483.523438 657.210938 483.859375 656.15625 484.148438 C 655.101562 484.4375 654.035156 484.675781 652.957031 484.867188 C 651.882812 485.058594 650.796875 485.195312 649.707031 485.285156 C 648.617188 485.375 647.523438 485.414062 646.429688 485.402344 C 622.5625 485.402344 598.691406 485.441406 574.824219 485.359375 C 571.855469 485.351562 568.925781 485 566.039062 484.304688 C 564.207031 483.875 562.417969 483.300781 560.675781 482.582031 C 558.933594 481.863281 557.261719 481.007812 555.660156 480.015625 C 554.058594 479.027344 552.546875 477.910156 551.128906 476.671875 C 549.707031 475.4375 548.398438 474.089844 547.195312 472.640625 C 545.992188 471.1875 544.917969 469.652344 543.964844 468.023438 C 543.015625 466.398438 542.203125 464.707031 541.527344 462.945312 C 540.851562 461.1875 540.324219 459.386719 539.941406 457.539062 C 539.5625 455.695312 539.332031 453.832031 539.253906 451.949219 C 538.972656 434.339844 539.097656 416.722656 539.167969 399.105469 C 539.175781 398.335938 539.242188 397.570312 539.375 396.808594 C 539.507812 396.046875 539.707031 395.304688 539.964844 394.578125 C 540.222656 393.851562 540.539062 393.148438 540.917969 392.476562 C 541.292969 391.800781 541.722656 391.164062 542.207031 390.5625 C 542.691406 389.960938 543.21875 389.402344 543.796875 388.890625 C 544.375 388.378906 544.992188 387.917969 545.644531 387.511719 C 546.300781 387.101562 546.984375 386.75 547.699219 386.457031 C 548.414062 386.164062 549.148438 385.933594 549.898438 385.765625 C 552.71875 385.359375 555.550781 385.179688 558.394531 385.21875 C 559.085938 385.179688 559.785156 385.132812 560.585938 385.082031 L 560.585938 383.070312 C 560.585938 376.679688 560.5625 370.316406 560.585938 363.941406 C 560.589844 362.550781 560.65625 361.160156 560.773438 359.769531 C 560.894531 358.382812 561.074219 357.003906 561.308594 355.628906 C 561.542969 354.257812 561.835938 352.898438 562.183594 351.546875 C 562.53125 350.199219 562.933594 348.867188 563.390625 347.550781 C 563.851562 346.238281 564.363281 344.941406 564.925781 343.667969 C 565.492188 342.394531 566.109375 341.148438 566.777344 339.925781 C 567.445312 338.703125 568.164062 337.511719 568.929688 336.351562 C 569.699219 335.1875 570.511719 334.058594 571.375 332.964844 C 572.234375 331.867188 573.140625 330.8125 574.085938 329.789062 C 575.035156 328.769531 576.023438 327.792969 577.054688 326.851562 C 578.082031 325.914062 579.148438 325.019531 580.253906 324.171875 C 581.355469 323.320312 582.492188 322.519531 583.664062 321.761719 C 584.832031 321.007812 586.03125 320.300781 587.261719 319.644531 C 588.488281 318.988281 589.742188 318.382812 591.023438 317.828125 C 592.300781 317.277344 593.597656 316.777344 594.917969 316.332031 C 596.238281 315.886719 597.574219 315.5 598.925781 315.164062 C 601.5625 314.515625 604.261719 314.105469 606.929688 313.589844 Z M 610.640625 413.867188 C 609.878906 413.875 609.125 413.941406 608.375 414.070312 C 607.625 414.199219 606.886719 414.382812 606.167969 414.625 C 605.445312 414.867188 604.746094 415.167969 604.074219 415.519531 C 603.398438 415.871094 602.757812 416.273438 602.144531 416.726562 C 601.535156 417.183594 600.960938 417.679688 600.429688 418.226562 C 599.898438 418.769531 599.410156 419.351562 598.96875 419.972656 C 598.527344 420.589844 598.140625 421.242188 597.800781 421.921875 C 597.460938 422.605469 597.179688 423.308594 596.949219 424.035156 C 596.738281 424.753906 596.582031 425.480469 596.484375 426.222656 C 596.386719 426.964844 596.347656 427.707031 596.367188 428.457031 C 596.386719 429.203125 596.464844 429.945312 596.601562 430.679688 C 596.738281 431.414062 596.929688 432.136719 597.179688 432.839844 C 597.429688 433.542969 597.734375 434.226562 598.089844 434.882812 C 598.445312 435.539062 598.851562 436.164062 599.308594 436.757812 C 599.765625 437.351562 600.261719 437.902344 600.804688 438.417969 C 601.347656 438.933594 601.929688 439.402344 602.546875 439.824219 C 603.097656 440.261719 603.40625 440.832031 603.476562 441.53125 C 603.574219 444.085938 603.476562 446.664062 603.527344 449.234375 C 603.53125 449.710938 603.578125 450.179688 603.671875 450.644531 C 603.761719 451.109375 603.898438 451.5625 604.074219 452.003906 C 604.25 452.445312 604.464844 452.863281 604.71875 453.265625 C 604.972656 453.664062 605.261719 454.039062 605.585938 454.386719 C 605.90625 454.730469 606.261719 455.046875 606.640625 455.328125 C 607.023438 455.609375 607.429688 455.851562 607.855469 456.058594 C 608.28125 456.265625 608.722656 456.429688 609.183594 456.554688 C 609.640625 456.679688 610.105469 456.761719 610.578125 456.796875 C 611.058594 456.769531 611.53125 456.695312 611.996094 456.578125 C 612.460938 456.457031 612.910156 456.296875 613.347656 456.09375 C 613.78125 455.890625 614.195312 455.648438 614.585938 455.367188 C 614.972656 455.085938 615.332031 454.769531 615.664062 454.421875 C 615.992188 454.074219 616.289062 453.695312 616.546875 453.292969 C 616.808594 452.886719 617.027344 452.460938 617.207031 452.015625 C 617.382812 451.570312 617.519531 451.113281 617.613281 450.640625 C 617.707031 450.167969 617.753906 449.695312 617.757812 449.214844 C 617.792969 446.660156 617.71875 444.070312 617.804688 441.507812 C 617.851562 440.859375 618.125 440.328125 618.621094 439.910156 C 619.257812 439.488281 619.855469 439.019531 620.414062 438.503906 C 620.972656 437.984375 621.484375 437.425781 621.953125 436.824219 C 622.421875 436.226562 622.839844 435.589844 623.207031 434.921875 C 623.574219 434.253906 623.882812 433.5625 624.136719 432.84375 C 624.390625 432.125 624.585938 431.390625 624.722656 430.644531 C 624.855469 429.894531 624.929688 429.136719 624.945312 428.375 C 624.957031 427.613281 624.910156 426.855469 624.800781 426.101562 C 624.691406 425.347656 624.523438 424.609375 624.292969 423.882812 C 624.058594 423.164062 623.769531 422.472656 623.425781 421.800781 C 623.082031 421.128906 622.691406 420.484375 622.246094 419.875 C 621.804688 419.265625 621.316406 418.691406 620.785156 418.15625 C 620.253906 417.621094 619.683594 417.132812 619.074219 416.683594 C 618.464844 416.238281 617.824219 415.84375 617.15625 415.496094 C 616.484375 415.148438 615.792969 414.855469 615.078125 414.617188 C 614.363281 414.378906 613.632812 414.195312 612.890625 414.070312 C 612.144531 413.945312 611.394531 413.875 610.640625 413.867188 Z M 610.640625 413.867188 " fill-opacity="1" fill-rule="nonzero"/></g><g fill="#d4d4d4" fill-opacity="1"><g transform="translate(128.558595, 446.041901)"><g><path d="M 7.203125 0 L 7.203125 -102.53125 L 86.109375 -102.53125 C 99.929688 -102.53125 110.539062 -99.503906 117.9375 -93.453125 C 125.332031 -87.410156 129.03125 -78.820312 129.03125 -67.6875 C 129.03125 -56.832031 125.304688 -48.425781 117.859375 -42.46875 C 110.421875 -36.519531 99.789062 -33.546875 85.96875 -33.546875 L 36.140625 -33.546875 L 36.140625 0 Z M 36.140625 -50.96875 L 77.1875 -50.96875 C 84.570312 -50.96875 90.234375 -52.457031 94.171875 -55.4375 C 98.109375 -58.414062 100.078125 -62.640625 100.078125 -68.109375 C 100.078125 -73.484375 98.109375 -77.660156 94.171875 -80.640625 C 90.234375 -83.617188 84.570312 -85.109375 77.1875 -85.109375 L 36.140625 -85.109375 Z M 36.140625 -50.96875 "/></g></g></g><g fill="#d4d4d4" fill-opacity="1"><g transform="translate(260.174528, 446.041901)"><g><path d="M 7.203125 0 L 7.203125 -102.53125 L 75.890625 -102.53125 C 95.660156 -102.53125 110.828125 -98.113281 121.390625 -89.28125 C 131.953125 -80.445312 137.234375 -67.773438 137.234375 -51.265625 C 137.234375 -34.753906 131.953125 -22.082031 121.390625 -13.25 C 110.828125 -4.414062 95.660156 0 75.890625 0 Z M 35.421875 -20.296875 L 72.28125 -20.296875 C 84.09375 -20.296875 93.164062 -22.984375 99.5 -28.359375 C 105.84375 -33.742188 109.015625 -41.378906 109.015625 -51.265625 C 109.015625 -61.242188 105.84375 -68.894531 99.5 -74.21875 C 93.164062 -79.550781 84.09375 -82.21875 72.28125 -82.21875 L 35.421875 -82.21875 Z M 35.421875 -20.296875 "/></g></g></g><g fill="#d4d4d4" fill-opacity="1"><g transform="translate(402.446461, 446.041901)"><g><path d="M 7.203125 0 L 7.203125 -102.53125 L 110.453125 -102.53125 L 110.453125 -81.5 L 36.140625 -81.5 L 36.140625 -57.171875 L 101.953125 -57.171875 L 101.953125 -39.453125 L 36.140625 -39.453125 L 36.140625 0 Z M 7.203125 0 "/></g></g></g></svg>